#!OML:ASF G:\JayActor3\Patient Classification 1\Patient 1\Session 5\male.ASF
:FULLY-SPECIFIED
:DEGREES
1127
root 13.3828 16.4404 -1.37478 -166.639 -87.7079 166.969
lowerback 1.29538 -0.623386 -1.57577
upperback -0.973085 -0.883221 -0.799138
thorax -1.71188 -0.430084 0.0886042
lowerneck -1.90486 0.481172 4.93243
upperneck 5.64459 0.342132 0.891128
head 2.10676 0.272381 -0.550018
rclavicle -7.72154e-015 -7.95139e-015
rhumerus -44.2099 -17.9749 -79.314
rradius 19.6964
rwrist 15.4082
rhand -21.9006 -10.2002
rfingers 7.12502
rthumb 4.50477 -40.1323
lclavicle -7.72154e-015 -7.95139e-015
lhumerus -38.7329 19.4078 73.2686
lradius 12.8923
lwrist 5.45506
lhand -17.94 10.1695
lfingers 7.12502
lthumb 8.32825 39.9853
rfemur -33.5312 7.00302 22.493
rtibia 36.0124
rfoot -20.9976 -13.5683
rtoes -3.35756
lfemur 34.3292 8.9225 -19.0305
ltibia 2.54444e-014
lfoot 4.88608 9.5112
ltoes -17.4888
1128
root 13.2601 16.4667 -1.39988 -168.038 -87.7031 168.469
lowerback 1.1711 -0.644164 -1.53258
upperback -0.988036 -0.907256 -0.782855
thorax -1.6575 -0.442805 0.0802847
lowerneck -1.96659 0.413553 4.85646
upperneck 5.67419 0.250655 0.896326
head 2.12506 0.226346 -0.537763
rclavicle -1.68222e-014 -3.97569e-015
rhumerus -44.2324 -17.9328 -79.326
rradius 19.706
rwrist 15.2675
rhand -21.7894 -10.1956
rfingers 7.12502
rthumb 4.61212 -40.1254
lclavicle -1.68222e-014 -3.97569e-015
lhumerus -38.5958 19.5512 73.2926
lradius 12.9169
lwrist 5.46642
lhand -18.4692 10.1509
lfingers 7.12502
lthumb 7.81746 39.9864
rfemur -33.1414 6.5861 22.7612
rtibia 35.9214
rfoot -20.4038 -13.3973
rtoes -3.04266
lfemur 34.4373 8.83946 -18.9738
ltibia -5.40694e-014
lfoot 6.40422 9.85163
ltoes -17.3142
1129
root 13.1383 16.4917 -1.42438 -168.429 -87.6698 168.941
lowerback 1.08793 -0.649042 -1.52528
upperback -1.01484 -0.912309 -0.777253
thorax -1.63824 -0.445493 0.0811932
lowerneck -2.02064 0.349297 4.7458
upperneck 5.70452 0.163594 0.934862
head 2.14206 0.182514 -0.508925
rclavicle -3.4601e-015 8.34896e-015
rhumerus -44.2797 -17.8797 -79.3257
rradius 19.7127
rwrist 15.1283
rhand -21.6981 -10.1912
rfingers 7.12502
rthumb 4.70026 -40.1191
lclavicle -3.4601e-015 8.34896e-015
lhumerus -38.4803 19.6445 73.3367
lradius 12.9297
lwrist 5.49519
lhand -18.9879 10.1014
lfingers 7.12502
lthumb 7.31687 39.9549
rfemur -32.7529 6.2669 22.96
rtibia 35.8451
rfoot -19.8202 -13.1485
rtoes -2.75752
lfemur 34.5532 8.77667 -18.9641
ltibia -3.18055e-014
lfoot 7.98195 10.177
ltoes -17.278
1130
root 13.0177 16.5153 -1.44844 -167.757 -87.6199 168.327
lowerback 1.05352 -0.641718 -1.55847
upperback -1.05359 -0.903467 -0.782756
thorax -1.65839 -0.440612 0.0937593
lowerneck -2.06749 0.288442 4.59599
upperneck 5.74046 0.080259 1.01779
head 2.15949 0.140769 -0.459268
rclavicle -1.25669e-014 -8.34896e-015
rhumerus -44.3502 -17.8227 -79.3102
rradius 19.7128
rwrist 15.0068
rhand -21.6493 -10.17
rfingers 7.12502
rthumb 4.74744 -40.0969
lclavicle -1.25669e-014 -8.34896e-015
lhumerus -38.3849 19.6782 73.4048
lradius 12.9386
lwrist 5.5267
lhand -19.4089 10.075
lfingers 7.12502
lthumb 6.9104 39.9422
rfemur -32.3584 6.06168 23.0863
rtibia 35.7925
rfoot -19.2967 -12.9179
rtoes -2.45103
lfemur 34.6775 8.72171 -18.998
ltibia -4.45278e-014
lfoot 9.59329 10.4672
ltoes -17.4756
1131
root 12.8983 16.5377 -1.47194 -166.129 -87.5697 166.724
lowerback 1.07456 -0.62997 -1.62511
upperback -1.10131 -0.891114 -0.800077
thorax -1.71864 -0.433389 0.113613
lowerneck -2.09697 0.227348 4.42273
upperneck 5.77587 -0.00348622 1.13282
head 2.1737 0.0989208 -0.395472
rclavicle -6.78353e-015 6.36111e-015
rhumerus -44.4376 -17.7704 -79.2797
rradius 19.6987
rwrist 14.9241
rhand -21.6369 -10.1425
rfingers 7.12502
rthumb 4.75935 -40.0691
lclavicle -6.78353e-015 6.36111e-015
lhumerus -38.3107 19.646 73.4974
lradius 12.9457
lwrist 5.57875
lhand -19.705 9.99503
lfingers 7.12502
lthumb 6.62459 39.8714
rfemur -31.9433 5.94555 23.1502
rtibia 35.7654
rfoot -18.858 -12.7586
rtoes -2.05828
lfemur 34.8168 8.65696 -19.0676
ltibia -5.40694e-014
lfoot 11.2483 10.7109
ltoes -17.7639
1132
root 12.7802 16.5591 -1.49496 -163.992 -87.5242 164.574
lowerback 1.15079 -0.616371 -1.70585
upperback -1.15317 -0.878298 -0.82602
thorax -1.81412 -0.425521 0.133192
lowerneck -2.10152 0.16174 4.24408
upperneck 5.80376 -0.0925102 1.26183
head 2.18116 0.0543267 -0.326465
rclavicle -2.27981e-015 -1.11319e-014
rhumerus -44.5353 -17.742 -79.2265
rradius 19.6638
rwrist 14.9197
rhand -21.6636 -10.109
rfingers 7.12502
rthumb 4.73361 -40.0361
lclavicle -2.27981e-015 -1.11319e-014
lhumerus -38.256 19.5826 73.5909
lradius 12.9451
lwrist 5.6158
lhand -19.8592 9.87283
lfingers 7.12502
lthumb 6.47578 39.7538
rfemur -31.496 5.8923 23.1787
rtibia 35.7596
rfoot -18.5061 -12.681
rtoes -1.5237
lfemur 34.9782 8.57773 -19.1509
ltibia -4.77083e-014
lfoot 12.9404 10.9035
ltoes -18.0347
1133
root 12.663 16.5795 -1.51766 -162.124 -87.4878 162.652
lowerback 1.27521 -0.60243 -1.7666
upperback -1.19961 -0.865867 -0.852702
thorax -1.93147 -0.417849 0.141323
lowerneck -2.07238 0.0879949 4.07726
upperneck 5.81083 -0.190404 1.38546
head 2.17598 0.00483068 -0.261357
rclavicle 1.38155e-014 9.54166e-015
rhumerus -44.6298 -17.747 -79.153
rradius 19.6045
rwrist 15.0133
rhand -21.7159 -10.0805
rfingers 7.12502
rthumb 4.6831 -40.0087
lclavicle 1.38155e-014 9.54166e-015
lhumerus -38.2128 19.4549 73.7101
lradius 12.9588
lwrist 5.69824
lhand -19.8924 9.73754
lfingers 7.12502
lthumb 6.44368 39.6195
rfemur -31.0015 5.88069 23.2161
rtibia 35.7639
rfoot -18.2226 -12.6639
rtoes -0.823837
lfemur 35.1733 8.48641 -19.2094
ltibia -4.77083e-014
lfoot 14.6598 11.0501
ltoes -18.1326
1134
root 12.5469 16.5992 -1.53966 -160.874 -87.4674 161.305
lowerback 1.4388 -0.590727 -1.78251
upperback -1.23551 -0.8562 -0.877419
thorax -2.0606 -0.411991 0.126773
lowerneck -2.03376 0.0117612 3.91049
upperneck 5.82345 -0.2923 1.51932
head 2.1713 -0.0464791 -0.193173
rclavicle -6.65929e-015 -7.95139e-015
rhumerus -44.7126 -17.7864 -79.0644
rradius 19.5224
rwrist 15.2115
rhand -21.7918 -10.0517
rfingers 7.12502
rthumb 4.60985 -39.9816
lclavicle -6.65929e-015 -7.95139e-015
lhumerus -38.1807 19.3157 73.8231
lradius 12.9831
lwrist 5.76788
lhand -19.821 9.6399
lfingers 7.12502
lthumb 6.51262 39.5198
rfemur -30.4547 5.88835 23.2838
rtibia 35.7643
rfoot -17.9813 -12.6799
rtoes 0.0276434
lfemur 35.4034 8.3833 -19.2274
ltibia 1.27222e-014
lfoot 16.4178 11.1599
ltoes -17.9797
1135
root 12.4321 16.6182 -1.56074 -160.659 -87.4633 160.952
lowerback 1.62619 -0.580568 -1.73116
upperback -1.25009 -0.846714 -0.896338
thorax -2.18207 -0.407192 0.0805912
lowerneck -1.99334 -0.067225 3.75474
upperneck 5.83595 -0.398246 1.64929
head 2.16667 -0.0997369 -0.128238
rclavicle 1.24862e-015 -1.19271e-015
rhumerus -44.7625 -17.8521 -78.9758
rradius 19.4229
rwrist 15.4912
rhand -21.8694 -10.0296
rfingers 7.12502
rthumb 4.53489 -39.961
lclavicle 1.24862e-015 -1.19271e-015
lhumerus -38.1426 19.1686 73.9371
lradius 13.0241
lwrist 5.83682
lhand -19.6894 9.62573
lfingers 7.12502
lthumb 6.63965 39.5016
rfemur -29.8535 5.91037 23.4027
rtibia 35.7458
rfoot -17.7433 -12.7083
rtoes 0.99
lfemur 35.6683 8.27664 -19.1878
ltibia 4.13472e-014
lfoot 18.2101 11.2544
ltoes -17.5456
1136
root 12.3187 16.6365 -1.58064 -161.497 -87.4742 161.623
lowerback 1.81933 -0.573384 -1.60992
upperback -1.24166 -0.83827 -0.908676
thorax -2.28394 -0.404113 0.00191761
lowerneck -1.96944 -0.145214 3.60225
upperneck 5.86223 -0.504477 1.78022
head 2.17001 -0.152746 -0.0636532
rclavicle 1.76111e-014 2.3059e-014
rhumerus -44.7718 -17.94 -78.8916
rradius 19.3104
rwrist 15.8392
rhand -21.9458 -10.0093
rfingers 7.12502
rthumb 4.46109 -39.9423
lclavicle 1.76111e-014 2.3059e-014
lhumerus -38.0966 19.067 74.0224
lradius 13.0666
lwrist 5.84947
lhand -19.5407 9.68584
lfingers 7.12502
lthumb 6.78318 39.5572
rfemur -29.2097 5.9418 23.5712
rtibia 35.7002
rfoot -17.4841 -12.743
rtoes 2.01069
lfemur 35.9536 8.17007 -19.0954
ltibia -1.27222e-014
lfoot 20.0504 11.3331
ltoes -16.8447
1137
root 12.2071 16.6543 -1.59923 -163.423 -87.4991 163.363
lowerback 2.00463 -0.571187 -1.42042
upperback -1.20869 -0.832792 -0.91233
thorax -2.35693 -0.403762 -0.106258
lowerneck -1.97149 -0.219591 3.4567
upperneck 5.90847 -0.607866 1.90653
head 2.18505 -0.203803 -0.00174356
rclavicle 9.93302e-015 1.35174e-014
rhumerus -44.7289 -18.0236 -78.833
rradius 19.1945
rwrist 16.1895
rhand -22.0092 -9.98905
rfingers 7.12502
rthumb 4.39985 -39.9233
lclavicle 9.93302e-015 1.35174e-014
lhumerus -38.0391 18.9975 74.0955
lradius 13.1145
lwrist 5.85039
lhand -19.4229 9.75804
lfingers 7.12502
lthumb 6.89688 39.6257
rfemur -28.5329 5.97856 23.7883
rtibia 35.622
rfoot -17.1915 -12.7824
rtoes 3.05941
lfemur 32.1248 8.2857 -18.7795
ltibia 7.61013
lfoot 18.3834 11.4414
ltoes -15.8404
